<?xml version="1.0" encoding="UTF-8"?><svg xmlns="http://www.w3.org/2000/svg" xmlns:xlink="http://www.w3.org/1999/xlink" contentScriptType="text/ecmascript" width="375" zoomAndPan="magnify" contentStyleType="text/css" viewBox="0 0 375 374.999991" height="374.999991" preserveAspectRatio="xMidYMid meet" version="1.0"><defs><clipPath id="clip-0"><path d="M 132.324219 150.800781 L 249.953125 150.800781 L 249.953125 272.25 L 132.324219 272.25 Z M 132.324219 150.800781 " clip-rule="nonzero"/></clipPath><clipPath id="clip-1"><path d="M 147 164 L 240 164 L 240 272.25 L 147 272.25 Z M 147 164 " clip-rule="nonzero"/></clipPath></defs><path fill="rgb(27.839661%, 14.898682%, 2.349854%)" d="M 247.859375 199.726562 C 247.859375 199.726562 212.105469 204.65625 191.140625 207.414062 C 180.929688 208.757812 173.765625 204.136719 169.679688 198.761719 C 173.605469 185.160156 175.429688 167.425781 175.652344 164.855469 C 176.046875 160.214844 178.558594 154.699219 178.558594 154.699219 C 176.125 153.871094 175.988281 150.914062 175.714844 149.015625 C 175.714844 146.808594 175.664062 145.105469 175.605469 144.183594 C 175.128906 136.378906 178.019531 129.246094 183.960938 121.988281 C 191.300781 113.027344 199.015625 114.820312 199.015625 114.820312 C 202.847656 112.507812 214.671875 115.527344 219.050781 128.875 C 221.351562 135.882812 223.144531 142.902344 224.738281 149.304688 C 224.738281 149.304688 227.863281 151.777344 228.855469 156.851562 C 229.847656 161.925781 231.394531 170.527344 237.132812 174.496094 C 242.875 178.464844 246.296875 179.394531 247.839844 184.609375 C 247.839844 184.609375 245.988281 182.28125 242.9375 180.644531 C 244.367188 181.878906 245.660156 183.167969 246.664062 184.609375 C 247.261719 185.472656 247.804688 187.066406 248.238281 189.070312 C 246.863281 185.761719 243.855469 182.398438 240.324219 180.683594 C 240.324219 180.683594 247.371094 186.523438 248.417969 190.949219 C 248.984375 195.703125 247.859375 199.726562 247.859375 199.726562 " fill-opacity="1" fill-rule="nonzero"/><path fill="rgb(94.119263%, 73.329163%, 69.018555%)" d="M 163.40625 182.117188 C 163.40625 182.117188 166.769531 181.726562 167.992188 181.195312 C 167.992188 181.195312 169.34375 183.457031 170.667969 183.660156 L 168.640625 184.609375 Z M 161.671875 188.1875 C 161.53125 188.089844 165.058594 189.53125 167.410156 190.300781 C 169.757812 191.070312 171.617188 190.484375 171.617188 190.484375 C 171.617188 190.484375 169.601562 193.453125 161.671875 188.1875 Z M 161.214844 176.152344 C 161.214844 176.152344 161.917969 176.984375 162.8125 176.898438 C 163.707031 176.8125 166.835938 175.769531 167.96875 175.769531 C 169.097656 175.769531 171.011719 176.101562 171.269531 176.152344 C 171.53125 176.203125 173.042969 178.113281 173.042969 178.113281 C 173.042969 178.113281 171.527344 176.648438 170.949219 176.496094 C 170.371094 176.34375 167.832031 175.996094 166.945312 176.34375 C 166.0625 176.6875 162.636719 177.34375 162.40625 177.34375 C 162.171875 177.34375 161.335938 176.960938 161.214844 176.152344 Z M 171.109375 172.375 C 170.90625 172.195312 170.507812 171.890625 170.0625 171.605469 C 170.0625 171.605469 171.9375 170.023438 172.46875 169.492188 C 173 168.964844 174.292969 168.988281 175.253906 169.492188 C 175.542969 169.644531 175.84375 169.964844 176.125 170.332031 C 175.738281 171.734375 175.289062 172.773438 175.289062 172.773438 C 174.367188 172.179688 172.265625 172.175781 170.949219 172.242188 C 171.011719 172.289062 171.066406 172.335938 171.109375 172.375 Z M 213.59375 172.328125 C 213.59375 172.328125 212.945312 170.429688 213.078125 170.1875 C 213.078125 170.1875 197.238281 176.347656 194.695312 178.039062 C 194.359375 178.261719 194.078125 178.5625 193.847656 178.914062 L 204.210938 182.117188 C 204.207031 182.125 204.257812 182.210938 204.613281 182.195312 L 204.554688 182.507812 C 204.839844 181.929688 205.578125 182.507812 205.578125 182.507812 C 205.957031 181.957031 206.636719 182.113281 206.636719 182.113281 C 206.878906 181.539062 207.636719 181.59375 207.636719 181.59375 C 207.695312 181.113281 208.667969 181.324219 208.667969 181.324219 C 208.605469 180.75 209.757812 180.628906 209.757812 180.628906 C 209.695312 179.996094 210.4375 179.863281 210.4375 179.863281 C 210.546875 179.320312 211.308594 179.054688 211.308594 179.054688 C 211.183594 178.542969 211.875 178.320312 211.875 178.320312 C 211.726562 177.9375 212.441406 177.464844 212.441406 177.464844 C 212.242188 177.085938 212.992188 176.714844 212.992188 176.714844 C 213.054688 175.996094 213.390625 176.039062 213.390625 176.039062 C 213.175781 175.78125 213.59375 175.296875 213.59375 175.296875 Z M 216.035156 155.421875 C 216.347656 157.140625 218.359375 157.382812 218.359375 157.382812 C 218.359375 157.382812 218.304688 157.769531 217.207031 159.566406 C 216.113281 161.367188 215.324219 160.882812 215.324219 160.882812 L 216.035156 155.421875 " fill-opacity="1" fill-rule="nonzero"/><g clip-path="url(#clip-0)"><path fill="rgb(47.839355%, 32.939148%, 18.03894%)" d="M 204.117188 164.222656 C 201.722656 164.71875 199.957031 163.945312 198.710938 163.386719 C 196.574219 162.421875 194.882812 157.710938 194.707031 156.351562 C 194.535156 154.996094 196.164062 153.269531 200.382812 153.292969 C 204.601562 153.320312 206.785156 156.128906 207.128906 156.527344 C 207.476562 156.921875 207.378906 159.558594 207.425781 160.894531 C 207.476562 162.226562 206.515625 163.730469 204.117188 164.222656 Z M 188.382812 162.371094 C 187.691406 163.84375 185.820312 163.796875 182.425781 162.910156 C 179.027344 162.023438 176.960938 156.027344 176.960938 156.027344 C 175.917969 153.664062 182.375 151.640625 185.917969 153.292969 C 190.023438 155.207031 189.070312 160.894531 188.382812 162.371094 Z M 210.898438 155.183594 C 210.601562 155.578125 209.011719 155.382812 208.015625 155.183594 C 207.019531 154.984375 204.335938 152.5 200.382812 152.203125 C 196.433594 151.902344 193.988281 154.289062 193.988281 154.289062 C 191.898438 153.59375 188.515625 153.890625 188.515625 153.890625 C 184.636719 150.3125 179.367188 151.902344 177.675781 152.597656 C 175.984375 153.292969 174.789062 153.890625 174.789062 153.890625 L 174.789062 155.578125 L 175.886719 155.976562 C 177.773438 163.53125 184.183594 164.191406 186.722656 164.03125 C 189.648438 163.847656 189.941406 158.914062 189.925781 158.113281 C 189.878906 155.824219 189.3125 154.882812 189.3125 154.882812 C 190.308594 154.191406 193.195312 155.28125 193.195312 155.28125 C 193.027344 156.472656 193.691406 158.496094 194.6875 160.351562 C 195.933594 162.679688 198.070312 165.320312 203.835938 164.785156 C 209.609375 164.25 208.613281 158.660156 208.710938 157.765625 C 208.8125 156.871094 210.503906 157.171875 211.097656 156.773438 C 211.519531 156.492188 214.976562 153.527344 216.964844 151.816406 C 216.992188 151.492188 216.953125 151.152344 216.957031 150.875 C 214.855469 152.3125 211.113281 154.898438 210.898438 155.183594 Z M 249.8125 240.59375 C 249.152344 243.367188 242.476562 250.828125 242.609375 251.421875 C 242.742188 252.015625 235.273438 272.25 235.273438 272.25 L 149.457031 272.25 C 149.457031 272.25 147.46875 270.394531 146.140625 266.816406 C 144.8125 263.238281 144.152344 257.011719 144.152344 257.011719 C 144.152344 257.011719 139.773438 260.058594 137.785156 258.867188 C 135.796875 257.675781 132.613281 253.300781 132.347656 251.445312 C 132.082031 249.59375 134.335938 228.125 136.855469 221.105469 C 139.375 214.082031 144.152344 199.503906 144.8125 198.976562 C 145.476562 198.445312 146.40625 197.648438 146.40625 197.648438 C 146.40625 197.648438 146.671875 195.796875 147.070312 194.867188 C 147.46875 193.941406 149.324219 189.171875 150.121094 188.242188 C 150.914062 187.3125 151.84375 187.050781 151.84375 187.050781 C 151.84375 187.050781 151.046875 187.976562 151.710938 189.699219 C 152.375 191.421875 154.097656 195.398438 157.546875 196.058594 C 160.996094 196.722656 162.71875 196.324219 162.71875 196.324219 L 163.78125 190.890625 C 163.78125 190.890625 163.796875 190.367188 163.828125 189.5 C 169.976562 192.902344 171.617188 190.484375 171.617188 190.484375 C 171.617188 190.484375 169.757812 191.070312 167.410156 190.300781 C 166.3125 189.941406 164.960938 189.4375 163.84375 189.011719 C 163.902344 187.390625 163.996094 184.925781 164.109375 182.453125 L 168.640625 184.609375 L 170.667969 183.660156 C 169.34375 183.457031 167.992188 181.195312 167.992188 181.195312 C 167.128906 181.570312 165.1875 181.878906 164.128906 182.023438 C 164.214844 180.214844 164.3125 178.421875 164.417969 176.976562 C 165.417969 176.765625 166.503906 176.515625 166.945312 176.34375 C 167.832031 175.996094 170.371094 176.34375 170.949219 176.496094 C 171.527344 176.648438 173.042969 178.113281 173.042969 178.113281 C 173.042969 178.113281 171.53125 176.203125 171.269531 176.152344 C 171.011719 176.101562 169.097656 175.769531 167.96875 175.769531 C 167.242188 175.769531 165.703125 176.195312 164.453125 176.523438 C 164.578125 174.917969 164.710938 173.832031 164.84375 173.800781 C 165.371094 173.667969 173.992188 173.269531 173.992188 173.269531 L 204.648438 181.984375 C 204.597656 181.957031 204.070312 181.414062 207.429688 180.148438 C 210.933594 178.828125 212.539062 174.5625 212.539062 174.5625 L 213.59375 172.328125 C 213.59375 172.328125 214.917969 172.523438 215.378906 173.117188 C 215.84375 173.714844 215.578125 176.289062 215.972656 176.550781 C 216.371094 176.816406 224.101562 179.523438 227.804688 179.589844 C 231.507812 179.65625 232.695312 179.523438 234.546875 180.910156 C 236.394531 182.296875 244.328125 188.105469 244.855469 189.230469 C 245.382812 190.351562 245.382812 190.351562 245.382812 190.351562 C 245.382812 190.351562 246.507812 190.945312 246.96875 192.726562 C 247.433594 194.511719 248.621094 203.160156 248.621094 206.328125 C 248.621094 209.496094 250.472656 237.820312 249.8125 240.59375 " fill-opacity="1" fill-rule="nonzero"/></g><path fill="rgb(94.119263%, 73.329163%, 69.018555%)" d="M 211.097656 156.773438 C 210.503906 157.171875 208.8125 156.871094 208.710938 157.765625 C 208.613281 158.660156 209.609375 164.25 203.835938 164.785156 C 198.070312 165.320312 195.933594 162.679688 194.6875 160.351562 C 193.691406 158.496094 193.027344 156.472656 193.195312 155.28125 C 193.195312 155.28125 190.308594 154.1875 189.3125 154.882812 C 189.3125 154.882812 189.878906 155.824219 189.925781 158.113281 C 189.941406 158.914062 189.648438 163.847656 186.722656 164.03125 C 185.65625 164.097656 183.902344 164.019531 182.089844 163.34375 C 182.371094 164.304688 182.65625 165.101562 182.921875 165.570312 C 184.097656 167.675781 193.230469 184.609375 196.214844 184.609375 C 199.203125 184.609375 205.964844 180.835938 208.335938 177.589844 C 210.703125 174.34375 214.570312 168.203125 214.65625 166.449219 C 214.714844 165.332031 215.484375 159.75 216.035156 155.421875 C 215.875 155.035156 215.667969 154.089844 215.515625 153.0625 C 213.625 154.683594 211.429688 156.550781 211.097656 156.773438 Z M 173.042969 178.113281 C 173.042969 178.113281 171.527344 176.648438 170.949219 176.496094 C 170.371094 176.34375 167.832031 175.996094 166.945312 176.34375 C 166.0625 176.6875 162.636719 177.34375 162.40625 177.34375 C 162.171875 177.34375 161.335938 176.960938 161.214844 176.152344 C 161.214844 176.152344 161.917969 176.984375 162.8125 176.898438 C 163.707031 176.8125 166.835938 175.769531 167.96875 175.769531 C 169.097656 175.769531 171.011719 176.101562 171.269531 176.152344 C 171.53125 176.203125 173.042969 178.113281 173.042969 178.113281 C 173.042969 178.113281 173.601562 177.511719 173.644531 176.863281 C 173.691406 176.214844 173.183594 175.050781 172.800781 174.460938 C 172.417969 173.875 171.59375 172.800781 171.109375 172.375 C 170.625 171.949219 169.070312 170.828125 168.296875 170.914062 C 167.519531 171 159.191406 173.070312 158.199219 174.148438 C 157.207031 175.226562 153.644531 185.039062 151.84375 187.050781 C 151.84375 187.050781 151.707031 187.214844 151.585938 187.511719 C 151.585938 187.511719 151.332031 187.898438 151.421875 188.636719 C 151.441406 188.875 151.5 189.128906 151.609375 189.402344 C 151.609375 189.402344 151.941406 190.414062 151.609375 191.320312 C 151.609375 191.320312 152.179688 190.867188 152.578125 191.65625 C 152.972656 192.449219 152.917969 193.796875 152.804688 193.855469 C 152.847656 193.835938 152.917969 193.796875 152.917969 193.796875 C 152.917969 193.796875 153.195312 192.589844 153.707031 193.394531 C 154.21875 194.199219 154.03125 194.992188 154.03125 194.992188 C 154.03125 194.992188 154.558594 194.441406 155.347656 195.082031 C 156.140625 195.726562 155.96875 196.410156 155.96875 196.410156 C 155.96875 196.410156 156.425781 195.761719 157.328125 195.972656 C 158.136719 196.15625 158.3125 196.988281 158.339844 197.160156 C 158.320312 196.996094 158.277344 196.261719 159.242188 196.324219 C 160.027344 196.378906 160.535156 196.785156 160.714844 197.175781 C 160.695312 196.84375 160.765625 196.429688 161.214844 196.410156 C 161.269531 196.40625 161.320312 196.40625 161.375 196.402344 C 161.828125 196.390625 162.277344 196.363281 162.71875 196.324219 C 162.71875 196.324219 164.066406 194.925781 164.414062 194.320312 C 164.757812 193.71875 164.757812 193.242188 164.757812 193.242188 C 164.757812 193.242188 168.167969 193.546875 169.847656 193.328125 C 171.53125 193.113281 171.964844 192.554688 172.007812 192.164062 C 172.050781 191.777344 171.617188 190.484375 171.617188 190.484375 C 171.617188 190.484375 169.601562 193.453125 161.671875 188.1875 C 161.53125 188.089844 165.058594 189.53125 167.410156 190.300781 C 169.757812 191.070312 171.617188 190.484375 171.617188 190.484375 C 171.617188 190.484375 172.609375 189.664062 172.957031 188.5 C 173.300781 187.335938 172.222656 186.175781 171.402344 185.570312 C 170.582031 184.96875 168.640625 184.609375 168.640625 184.609375 L 163.40625 182.117188 C 163.40625 182.117188 166.769531 181.726562 167.992188 181.195312 C 167.992188 181.195312 169.34375 183.457031 170.667969 183.660156 L 168.640625 184.609375 C 168.640625 184.609375 173.261719 183.804688 173.648438 183.113281 C 174.035156 182.421875 173.78125 180.183594 173.648438 179.449219 C 173.515625 178.71875 173.042969 178.113281 173.042969 178.113281 Z M 188.382812 162.371094 C 189.070312 160.894531 190.023438 155.207031 185.917969 153.292969 C 184.273438 152.527344 181.996094 152.550781 180.136719 153.039062 C 180.152344 153.425781 180.164062 153.730469 180.160156 153.90625 C 180.148438 154.671875 181 159.410156 181.914062 162.734375 C 182.082031 162.804688 182.25 162.863281 182.425781 162.910156 C 185.820312 163.796875 187.691406 163.84375 188.382812 162.371094 Z M 200.382812 153.292969 C 196.164062 153.269531 194.535156 154.996094 194.707031 156.351562 C 194.882812 157.710938 196.574219 162.421875 198.710938 163.386719 C 199.957031 163.945312 201.722656 164.71875 204.117188 164.222656 C 206.515625 163.730469 207.476562 162.226562 207.425781 160.894531 C 207.378906 159.558594 207.476562 156.921875 207.128906 156.527344 C 206.785156 156.128906 204.601562 153.320312 200.382812 153.292969 Z M 194.160156 151.628906 C 194.921875 152.300781 196.671875 151.875 196.671875 151.875 C 195.792969 151.902344 194.105469 151.578125 194.160156 151.628906 Z M 180.007812 150.964844 C 179.980469 150.625 179.953125 150.273438 179.921875 149.914062 C 179.921875 149.914062 180.320312 142.675781 183.484375 139.957031 C 186.644531 137.238281 190.683594 138.550781 190.683594 138.550781 C 190.683594 138.550781 194.984375 145.308594 201.484375 148.996094 C 199.859375 149.269531 196.214844 150.199219 194.34375 150.621094 C 194.675781 150.90625 195.164062 151.214844 195.890625 151.507812 C 195.890625 151.507812 194.617188 151.277344 193.871094 150.722656 C 193.558594 150.789062 193.335938 150.824219 193.242188 150.824219 C 192.96875 150.824219 195.019531 151.746094 196.273438 151.613281 C 197.523438 151.484375 203.316406 150.429688 204.042969 150.363281 C 204.136719 150.355469 204.242188 150.351562 204.359375 150.347656 C 204.570312 150.425781 204.785156 150.5 204.996094 150.570312 C 208.464844 151.707031 212.160156 151.472656 215.308594 150.808594 C 215.3125 151.15625 215.335938 151.554688 215.378906 151.960938 C 213.375 153.34375 211.066406 154.960938 210.898438 155.183594 C 210.601562 155.578125 209.011719 155.382812 208.015625 155.183594 C 207.019531 154.984375 204.335938 152.5 200.382812 152.203125 C 196.433594 151.902344 193.988281 154.289062 193.988281 154.289062 C 191.898438 153.59375 188.515625 153.890625 188.515625 153.890625 C 185.816406 151.398438 182.445312 151.414062 180.070312 151.886719 C 180.054688 151.609375 180.035156 151.320312 180.011719 151.015625 C 180.246094 151.015625 180.898438 151.015625 181.230469 151.015625 C 181.636719 151.015625 184.332031 151.914062 185.230469 151.875 C 185.230469 151.875 186.863281 151.792969 187.394531 151.015625 C 187.394531 151.015625 186.230469 151.621094 185.1875 151.621094 C 185.1875 151.621094 186.523438 151.402344 187.140625 150.957031 C 186.144531 150.714844 182.480469 149.839844 182.128906 149.875 C 181.773438 149.910156 180.367188 150.75 180.007812 150.964844 Z M 196.949219 142.710938 C 203.289062 151.09375 216.09375 150.007812 215.875 150.035156 C 201.425781 151.851562 196.949219 142.710938 196.949219 142.710938 " fill-opacity="1" fill-rule="nonzero"/><g clip-path="url(#clip-1)"><path fill="rgb(23.919678%, 25.489807%, 33.729553%)" d="M 205.429688 171.082031 C 204.136719 169.394531 199.558594 166.511719 189.710938 165.121094 C 179.863281 163.730469 176.679688 167.105469 176.679688 167.105469 C 176.582031 169.789062 175.289062 172.773438 175.289062 172.773438 C 174.367188 172.179688 172.265625 172.175781 170.949219 172.242188 C 171.011719 172.289062 171.066406 172.335938 171.109375 172.375 C 171.59375 172.800781 172.417969 173.875 172.800781 174.460938 C 174.988281 175.554688 175.585938 178.140625 175.585938 178.140625 C 175.1875 179.925781 175.6875 183.902344 175.6875 183.902344 C 174.191406 185.492188 172.601562 183.804688 172.601562 183.804688 C 172.5625 183.777344 172.511719 183.75 172.453125 183.722656 C 170.964844 184.203125 168.640625 184.609375 168.640625 184.609375 C 168.640625 184.609375 170.582031 184.96875 171.402344 185.570312 C 171.902344 185.9375 172.496094 186.515625 172.808594 187.167969 C 175.734375 188.015625 178.273438 188.277344 178.273438 188.277344 L 179.863281 190.859375 C 184.4375 194.535156 194.289062 193.839844 194.984375 193.742188 C 195.679688 193.640625 200.257812 191.554688 202.941406 187.183594 C 205.132812 183.617188 205.40625 175.632812 205.429688 172.8125 C 205.4375 172.171875 205.425781 171.402344 205.429688 171.082031 Z M 208.886719 182.199219 C 208.964844 182.90625 208.609375 185.113281 208.609375 185.113281 C 209.355469 183.769531 208.886719 182.199219 208.886719 182.199219 Z M 202.46875 187.902344 C 206.34375 187.972656 209.753906 185.546875 209.753906 185.546875 C 207.152344 187.203125 203.128906 187.476562 202.773438 187.449219 Z M 213.859375 179.007812 L 213.859375 181.746094 C 213.859375 181.746094 214.46875 180.269531 213.859375 179.007812 Z M 215.324219 175.582031 L 215.324219 180.617188 L 215.726562 179.617188 Z M 215.972656 176.550781 C 215.972656 176.550781 215.546875 181.917969 213.59375 183.21875 C 213.59375 183.21875 216.152344 181.984375 216.460938 176.761719 Z M 158.339844 198.457031 C 158.304688 198.164062 156.5625 204.484375 156.5625 204.484375 C 156.5625 204.484375 158.585938 200.386719 158.339844 198.457031 Z M 148.191406 197.589844 C 148.648438 196.324219 151.09375 191.628906 151.09375 191.628906 C 149.558594 193.164062 148.191406 197.589844 148.191406 197.589844 Z M 151.09375 201.585938 C 151.09375 201.585938 153.554688 195.824219 153.429688 195.953125 C 152.308594 197.132812 151.09375 201.585938 151.09375 201.585938 Z M 153.125 203.175781 C 152.929688 203.972656 153.542969 205.113281 153.542969 205.113281 C 153.542969 205.113281 153.601562 204.542969 153.542969 204.03125 C 153.488281 203.519531 155.539062 197.160156 155.539062 197.160156 C 155.539062 197.160156 153.316406 202.378906 153.125 203.175781 Z M 158.140625 206.558594 C 158.140625 206.558594 150.640625 206.304688 147.90625 200.046875 C 147.90625 200.046875 149.46875 206.988281 158.339844 207.273438 Z M 159.621094 216.742188 C 159.621094 217.238281 159.457031 227.09375 160.773438 234.484375 C 162.089844 241.878906 160.4375 249.4375 160.195312 250.09375 C 159.953125 250.75 163.667969 240.566406 162.632812 234.652344 C 161.597656 228.738281 159.621094 216.742188 159.621094 216.742188 Z M 160.773438 198.671875 C 160.773438 198.671875 159.363281 201.613281 158.527344 204.804688 C 158.375 205.386719 158.242188 205.976562 158.140625 206.558594 C 157.484375 210.335938 152.058594 245.824219 147.289062 253.050781 C 147.289062 253.050781 152.550781 247.300781 155.019531 236.128906 C 157.484375 224.957031 157.765625 206.453125 160.773438 198.671875 Z M 239.378906 213.292969 C 238.71875 215.265625 234.773438 226.929688 232.636719 229.394531 C 230.5 231.859375 227.539062 242.863281 224.742188 245.492188 C 224.742188 245.492188 222.933594 258.472656 221.949219 260.605469 C 220.960938 262.742188 216.582031 272.25 216.582031 272.25 C 216.582031 272.25 220.632812 260.605469 221.453125 256.992188 C 222.277344 253.378906 233.789062 205.738281 233.789062 205.738281 C 233.789062 205.738281 230.578125 228.714844 226.714844 239.90625 C 226.714844 239.90625 230.828125 229.066406 232.636719 226.273438 C 234.445312 223.480469 239.378906 213.292969 239.378906 213.292969 " fill-opacity="1" fill-rule="nonzero"/></g></svg>